<?xml version="1.0" encoding="UTF-8" standalone="no"?>
<!DOCTYPE svg PUBLIC "-//W3C//DTD SVG 1.1//EN"
"http://www.w3.org/Graphics/SVG/1.1/DTD/svg11.dtd">
<svg viewBox="0 0 909 1286" version="1.1" xmlns="http://www.w3.org/2000/svg" xmlns:xlink="http://www.w3.org/1999/xlink">
<defs>
<style type="text/css"><![CDATA[
.g0_3{
fill: #C4C4C4;
}
.g1_3{
fill: none;
stroke: #C4C4C4;
stroke-width: 3.0555556;
stroke-linecap: round;
stroke-linejoin: miter;
}
.g2_3{
fill: #037CAB;
}
.g3_3{
fill: none;
stroke: #037CAB;
stroke-width: 3.0555556;
stroke-linecap: round;
stroke-linejoin: miter;
}
.g4_3{
fill: none;
stroke: #4F81BD;
stroke-width: 1.1458334;
stroke-linecap: butt;
stroke-linejoin: round;
}
.g5_3{
fill: none;
stroke: #434343;
stroke-width: 2.2916667;
stroke-linecap: butt;
stroke-linejoin: round;
stroke-dasharray: 3,3;
}
.g6_3{
fill: #434343;
}
.g7_3{
fill: none;
stroke: #5A5A5A;
stroke-width: 2.2916667;
stroke-linecap: butt;
stroke-linejoin: round;
stroke-dasharray: 3,3;
}
.g8_3{
fill: none;
stroke: #037CAB;
stroke-width: 3.0555556;
stroke-linecap: round;
stroke-linejoin: miter;
stroke-miterlimit: 8;
}
.g9_3{
fill: #0000FF;
}
.g10_3{
fill: none;
stroke: #434343;
stroke-width: 2.2916667;
stroke-linecap: butt;
stroke-linejoin: round;
stroke-miterlimit: 8;
stroke-dasharray: 3,3;
}
]]></style>
</defs>
<path fill-rule="evenodd" d="M689.3,701.4H840.2v-7.6H689.3v7.6Z" class="g0_3" />
<path d="M689.3,701.4H840.2v-7.6H689.3v7.6Z" class="g1_3" />
<path fill-rule="evenodd" d="M689.3,745H840.2v-7.6H689.3V745Z" class="g0_3" />
<path d="M689.3,745H840.2v-7.6H689.3V745Z" class="g1_3" />
<path fill-rule="evenodd" d="M688.8,788.6H839.7V781H688.8v7.6Z" class="g0_3" />
<path d="M688.8,788.6H839.7V781H688.8v7.6Z" class="g1_3" />
<path fill-rule="evenodd" d="M689,701.2H840.2V694H689v7.2Z" class="g2_3" />
<path d="M689,701.2H840.2V694H689v7.2Z" class="g3_3" />
<path fill-rule="evenodd" d="M689,745H810.9v-7.4H689V745Z" class="g2_3" />
<path d="M689,745H810.9v-7.4H689V745Z" class="g3_3" />
<image preserveAspectRatio="none" x="83" y="725" width="110" height="110" xlink:href="img/1.png" />
<path d="M81.9,835.9H193.1V724.7H81.9V835.9Z" class="g4_3" />
<path d="M247.1,672.5l.6,168.5" class="g5_3" />
<path fill-rule="evenodd" d="M246.5,670.8c-2.5,0,-4.4,1.9,-4.4,4.4c0,2.4,1.9,4.4,4.4,4.4c2.4,0,4.4,-2,4.4,-4.4c0,-2.5,-2,-4.4,-4.4,-4.4Z" class="g6_3" />
<path d="M274.8,263.8H852.3" class="g7_3" />
<image preserveAspectRatio="none" x="275" y="278" width="30" height="30" xlink:href="img/2.png" />
<path d="M275.6,614.6H853.1" class="g7_3" />
<path d="M247.7,281.9V588.4" class="g5_3" />
<path fill-rule="evenodd" d="M246.5,758.9c-2.5,0,-4.4,2,-4.4,4.4c0,2.4,1.9,4.4,4.4,4.4c2.4,0,4.4,-2,4.4,-4.4c0,-2.4,-2,-4.4,-4.4,-4.4Z" class="g6_3" />
<path fill-rule="evenodd" d="M247.7,440.5c-2.4,0,-4.4,1.9,-4.4,4.3c0,2.5,2,4.4,4.4,4.4c2.4,0,4.4,-1.9,4.4,-4.4c0,-2.4,-2,-4.3,-4.4,-4.3Z" class="g6_3" />
<path fill-rule="evenodd" d="M247.7,524.1c-2.4,0,-4.4,2,-4.4,4.4c0,2.4,2,4.4,4.4,4.4c2.4,0,4.4,-2,4.4,-4.4c0,-2.4,-2,-4.4,-4.4,-4.4Z" class="g6_3" />
<image preserveAspectRatio="none" x="275" y="628" width="30" height="31" xlink:href="img/3.png" />
<image preserveAspectRatio="none" x="463" y="629" width="30" height="30" xlink:href="img/4.png" />
<image preserveAspectRatio="none" x="688" y="629" width="30" height="30" xlink:href="img/5.png" />
<path fill-rule="evenodd" d="M689,788.6h37.6v-7.4H689v7.4Z" class="g2_3" />
<path d="M689,788.6h37.6v-7.4H689v7.4Z" class="g8_3" />
<path fill-rule="evenodd" d="M332.8,141.6H453.5v-.8H332.8v.8Z" class="g6_3" />
<path fill-rule="evenodd" d="M284.4,714H398.6v-.5H284.4v.5Z" class="g9_3" />
<image preserveAspectRatio="none" x="261" y="668" width="19" height="19" xlink:href="img/6.png" />
<path fill-rule="evenodd" d="M247.7,326.6c-2.4,0,-4.4,1.9,-4.4,4.4c0,2.4,2,4.3,4.4,4.3c2.4,0,4.4,-1.9,4.4,-4.3c0,-2.5,-2,-4.4,-4.4,-4.4Z" class="g6_3" />
<image preserveAspectRatio="none" x="261" y="698" width="18" height="18" xlink:href="img/7.png" />
<image preserveAspectRatio="none" x="261" y="725" width="18" height="18" xlink:href="img/8.png" />
<path fill-rule="evenodd" d="M284.6,683.9H389.7v-.5H284.6v.5Z" class="g9_3" />
<path d="M247.1,20.6l.6,227.7" class="g10_3" />
<path fill-rule="evenodd" d="M285.5,741.3h85.1v-.5H285.5v.5Z" class="g9_3" />
</svg>