<?xml version="1.0" encoding="UTF-8" standalone="no"?>
<!DOCTYPE svg PUBLIC "-//W3C//DTD SVG 1.1//EN"
"http://www.w3.org/Graphics/SVG/1.1/DTD/svg11.dtd">
<svg viewBox="0 0 909 1286" version="1.1" xmlns="http://www.w3.org/2000/svg" xmlns:xlink="http://www.w3.org/1999/xlink">
<defs>
<style type="text/css"><![CDATA[
.g1_1{
fill: #C4C4C4;
}
.g2_1{
fill: none;
stroke: #C4C4C4;
stroke-width: 3.0555556;
stroke-linecap: round;
stroke-linejoin: miter;
}
.g3_1{
fill: #FFFFFF;
}
.g4_1{
fill: none;
stroke: #243F60;
stroke-width: 3.4375;
stroke-linecap: round;
stroke-linejoin: round;
}
.g5_1{
fill: none;
stroke: #5A5A5A;
stroke-width: 2.2916667;
stroke-linecap: butt;
stroke-linejoin: round;
stroke-dasharray: 3,3;
}
.g6_1{
fill: #037CAB;
}
.g7_1{
fill: none;
stroke: #037CAB;
stroke-width: 3.0555556;
stroke-linecap: round;
stroke-linejoin: miter;
stroke-miterlimit: 8;
}
.g8_1{
fill: none;
stroke: #5A5A5A;
stroke-width: 2.2916667;
stroke-linecap: butt;
stroke-linejoin: round;
stroke-miterlimit: 8;
stroke-dasharray: 3,3;
}
.g9_1{
fill: #434343;
}
.g10_1{
fill: none;
stroke: #434343;
stroke-width: 2.2916667;
stroke-linecap: butt;
stroke-linejoin: round;
stroke-miterlimit: 8;
stroke-dasharray: 3,3;
}
.g11_1{
fill: #0000FF;
}
]]></style>
</defs>
<path fill-rule="evenodd" d="M275.5,227.8l150.9,0l0,-7.6l-150.9,0l0,7.6Z" class="g1_1" />
<path d="M275.5,227.8l150.9,0l0,-7.6l-150.9,0l0,7.6Z" class="g2_1" />
<path fill-rule="evenodd" d="M275.5,269.1l150.9,0l0,-7.6l-150.9,0l0,7.6Z" class="g1_1" />
<path d="M275.5,269.1l150.9,0l0,-7.6l-150.9,0l0,7.6Z" class="g2_1" />
<path fill-rule="evenodd" d="M276.1,311.1l150.8,0l0,-7.6l-150.8,0l0,7.6Z" class="g1_1" />
<path d="M276.1,311.1l150.8,0l0,-7.6l-150.8,0l0,7.6Z" class="g2_1" />
<path fill-rule="evenodd" d="M467.7,227.8l150.9,0l0,-7.6l-150.9,0l0,7.6Z" class="g1_1" />
<path d="M467.7,227.8l150.9,0l0,-7.6l-150.9,0l0,7.6Z" class="g2_1" />
<path fill-rule="evenodd" d="M467.7,269.1l150.9,0l0,-7.6l-150.9,0l0,7.6Z" class="g1_1" />
<path d="M467.7,269.1l150.9,0l0,-7.6l-150.9,0l0,7.6Z" class="g2_1" />
<path fill-rule="evenodd" d="M467.2,310.7l150.9,0l0,-7.7l-150.9,0l0,7.7Z" class="g1_1" />
<path d="M467.2,310.7l150.9,0l0,-7.7l-150.9,0l0,7.7Z" class="g2_1" />
<path fill-rule="evenodd" d="M275.4,351.4l150.9,0l0,-7.6l-150.9,0l0,7.6Z" class="g1_1" />
<path d="M275.4,351.4l150.9,0l0,-7.6l-150.9,0l0,7.6Z" class="g2_1" />
<path fill-rule="evenodd" d="M467.9,351.4l150.9,0l0,-7.6l-150.9,0l0,7.6Z" class="g1_1" />
<path d="M467.9,351.4l150.9,0l0,-7.6l-150.9,0l0,7.6Z" class="g2_1" />
<path fill-rule="evenodd" d="M138.6,54.7C93,54.7,56,91.7,56,137.3C56,183,93,220,138.6,220c45.7,0,82.7,-37,82.7,-82.7c0,-45.6,-37,-82.6,-82.7,-82.6Z" class="g3_1" />
<image preserveAspectRatio="none" x="56" y="55" width="165" height="165" xlink:href="img/1.png" />
<path d="M138.6,54.7C93,54.7,56,91.7,56,137.3C56,183,93,220,138.6,220c45.7,0,82.7,-37,82.7,-82.7c0,-45.6,-37,-82.6,-82.7,-82.6Z" class="g4_1" />
<path d="M275,137.5l577.5,0" class="g5_1" />
<image preserveAspectRatio="none" x="275" y="151" width="29" height="30" xlink:href="img/2.png" />
<image preserveAspectRatio="none" x="656" y="151" width="30" height="30" xlink:href="img/3.png" />
<path fill-rule="evenodd" d="M275.3,227.9l123.5,0l0,-7.7l-123.5,0l0,7.7Z" class="g6_1" />
<path d="M275.3,227.9l123.5,0l0,-7.7l-123.5,0l0,7.7Z" class="g7_1" />
<path fill-rule="evenodd" d="M275.5,269.1l104,0l0,-7.9l-104,0l0,7.9Z" class="g6_1" />
<path d="M275.5,269.1l104,0l0,-7.9l-104,0l0,7.9Z" class="g7_1" />
<image preserveAspectRatio="none" x="665" y="196" width="18" height="19" xlink:href="img/4.png" />
<path fill-rule="evenodd" d="M467.7,227.8l110,0l0,-7.6l-110,0l0,7.6Z" class="g6_1" />
<path d="M467.7,227.8l110,0l0,-7.6l-110,0l0,7.6Z" class="g7_1" />
<path d="M274.8,382.8l577.5,0" class="g8_1" />
<image preserveAspectRatio="none" x="275" y="396" width="30" height="30" xlink:href="img/5.png" />
<path fill-rule="evenodd" d="M329.7,571.3l247.9,0l0,-0.7l-247.9,0l0,0.7Z" class="g9_1" />
<path fill-rule="evenodd" d="M329.7,769.6l262.4,0l0,-0.8l-262.4,0l0,0.8Z" class="g9_1" />
<path fill-rule="evenodd" d="M329.7,985.9l272.3,0l0,-0.7l-272.3,0l0,0.7Z" class="g9_1" />
<path fill-rule="evenodd" d="M329.7,1071l213.4,0l0,-0.7l-213.4,0l0,0.7Z" class="g9_1" />
<path fill-rule="evenodd" d="M467.7,269l120.2,0l0,-7.2l-120.2,0l0,7.2Z" class="g6_1" />
<path d="M467.7,269l120.2,0l0,-7.2l-120.2,0l0,7.2Z" class="g7_1" />
<path d="M246.9,400.9l0,829.3" class="g10_1" />
<path fill-rule="evenodd" d="M247.1,442.4c-2.4,0,-4.4,2,-4.4,4.4c0,2.5,2,4.4,4.4,4.4c2.4,0,4.4,-1.9,4.4,-4.4c0,-2.4,-2,-4.4,-4.4,-4.4Z" class="g9_1" />
<path fill-rule="evenodd" d="M247.2,1137.3c-2.4,0,-4.4,1.9,-4.4,4.4c0,2.4,2,4.4,4.4,4.4c2.5,0,4.4,-2,4.4,-4.4c0,-2.5,-1.9,-4.4,-4.4,-4.4Z" class="g9_1" />
<image preserveAspectRatio="none" x="665" y="227" width="19" height="18" xlink:href="img/6.png" />
<image preserveAspectRatio="none" x="665" y="256" width="19" height="19" xlink:href="img/7.png" />
<image preserveAspectRatio="none" x="665" y="292" width="18" height="19" xlink:href="img/8.png" />
<path fill-rule="evenodd" d="M699.8,269.9l124.6,0l0,-0.6l-124.6,0l0,0.6Z" class="g11_1" />
<path fill-rule="evenodd" d="M275.5,310.7l95.1,0l0,-7.3l-95.1,0l0,7.3Z" class="g6_1" />
<path d="M275.5,310.7l95.1,0l0,-7.3l-95.1,0l0,7.3Z" class="g7_1" />
<path fill-rule="evenodd" d="M467.5,309.9l143,0l0,-6.6l-143,0l0,6.6Z" class="g6_1" />
<path d="M467.5,309.9l143,0l0,-6.6l-143,0l0,6.6Z" class="g7_1" />
<path fill-rule="evenodd" d="M275,351.1l50.6,0l0,-7.3l-50.6,0l0,7.3Z" class="g6_1" />
<path d="M275,351.1l50.6,0l0,-7.3l-50.6,0l0,7.3Z" class="g7_1" />
<path fill-rule="evenodd" d="M467.5,351.1l61.6,0l0,-7.3l-61.6,0l0,7.3Z" class="g6_1" />
<path d="M467.5,351.1l61.6,0l0,-7.3l-61.6,0l0,7.3Z" class="g7_1" />
</svg>