<?xml version="1.0" encoding="UTF-8" standalone="no"?>
<!DOCTYPE svg PUBLIC "-//W3C//DTD SVG 1.1//EN"
"http://www.w3.org/Graphics/SVG/1.1/DTD/svg11.dtd">
<svg viewBox="0 0 909 1286" version="1.1" xmlns="http://www.w3.org/2000/svg" xmlns:xlink="http://www.w3.org/1999/xlink">
<defs>
<style type="text/css"><![CDATA[
.g0_1{
fill: #C4C4C4;
}
.g1_1{
fill: none;
stroke: #C4C4C4;
stroke-width: 3.0555556;
stroke-linecap: round;
stroke-linejoin: miter;
}
.g2_1{
fill: #FFFFFF;
}
.g3_1{
fill: none;
stroke: #243F60;
stroke-width: 3.4375;
stroke-linecap: round;
stroke-linejoin: round;
}
.g4_1{
fill: none;
stroke: #5A5A5A;
stroke-width: 2.2916667;
stroke-linecap: butt;
stroke-linejoin: round;
stroke-dasharray: 3,3;
}
.g5_1{
fill: #037CAB;
}
.g6_1{
fill: none;
stroke: #037CAB;
stroke-width: 3.0555556;
stroke-linecap: round;
stroke-linejoin: miter;
stroke-miterlimit: 8;
}
.g7_1{
fill: none;
stroke: #5A5A5A;
stroke-width: 2.2916667;
stroke-linecap: butt;
stroke-linejoin: round;
stroke-miterlimit: 8;
stroke-dasharray: 3,3;
}
.g8_1{
fill: #434343;
}
.g9_1{
fill: none;
stroke: #434343;
stroke-width: 2.2916667;
stroke-linecap: butt;
stroke-linejoin: round;
stroke-miterlimit: 8;
stroke-dasharray: 3,3;
}
.g10_1{
fill: #0000FF;
}
]]></style>
</defs>
<path fill-rule="evenodd" d="M275.5,227.8H426.4v-7.6H275.5v7.6Z" class="g0_1" />
<path d="M275.5,227.8H426.4v-7.6H275.5v7.6Z" class="g1_1" />
<path fill-rule="evenodd" d="M275.5,269.1H426.4v-7.6H275.5v7.6Z" class="g0_1" />
<path d="M275.5,269.1H426.4v-7.6H275.5v7.6Z" class="g1_1" />
<path fill-rule="evenodd" d="M276.1,311.1H426.9v-7.6H276.1v7.6Z" class="g0_1" />
<path d="M276.1,311.1H426.9v-7.6H276.1v7.6Z" class="g1_1" />
<path fill-rule="evenodd" d="M467.7,227.8H618.6v-7.6H467.7v7.6Z" class="g0_1" />
<path d="M467.7,227.8H618.6v-7.6H467.7v7.6Z" class="g1_1" />
<path fill-rule="evenodd" d="M467.7,269.1H618.6v-7.6H467.7v7.6Z" class="g0_1" />
<path d="M467.7,269.1H618.6v-7.6H467.7v7.6Z" class="g1_1" />
<path fill-rule="evenodd" d="M467.2,310.7H618.1V303H467.2v7.7Z" class="g0_1" />
<path d="M467.2,310.7H618.1V303H467.2v7.7Z" class="g1_1" />
<path fill-rule="evenodd" d="M275.4,351.4H426.3v-7.6H275.4v7.6Z" class="g0_1" />
<path d="M275.4,351.4H426.3v-7.6H275.4v7.6Z" class="g1_1" />
<path fill-rule="evenodd" d="M467.9,351.4H618.8v-7.6H467.9v7.6Z" class="g0_1" />
<path d="M467.9,351.4H618.8v-7.6H467.9v7.6Z" class="g1_1" />
<image preserveAspectRatio="none" x="275" y="446" width="62" height="47" xlink:href="img/1.png" />
<image preserveAspectRatio="none" x="40" y="229" width="194" height="194" xlink:href="img/2.png" />
<path fill-rule="evenodd" d="M138.6,54.7C93,54.7,56,91.7,56,137.3C56,183,93,220,138.6,220c45.7,0,82.7,-37,82.7,-82.7c0,-45.6,-37,-82.6,-82.7,-82.6Z" class="g2_1" />
<image preserveAspectRatio="none" x="56" y="55" width="165" height="165" xlink:href="img/3.png" />
<path d="M138.6,54.7C93,54.7,56,91.7,56,137.3C56,183,93,220,138.6,220c45.7,0,82.7,-37,82.7,-82.7c0,-45.6,-37,-82.6,-82.7,-82.6Z" class="g3_1" />
<path d="M275,137.5H852.5" class="g4_1" />
<image preserveAspectRatio="none" x="275" y="151" width="29" height="30" xlink:href="img/4.png" />
<image preserveAspectRatio="none" x="656" y="151" width="30" height="30" xlink:href="img/5.png" />
<path fill-rule="evenodd" d="M275.3,227.9H398.8v-7.7H275.3v7.7Z" class="g5_1" />
<path d="M275.3,227.9H398.8v-7.7H275.3v7.7Z" class="g6_1" />
<path fill-rule="evenodd" d="M275.5,269.1h104v-7.9h-104v7.9Z" class="g5_1" />
<path d="M275.5,269.1h104v-7.9h-104v7.9Z" class="g6_1" />
<image preserveAspectRatio="none" x="665" y="196" width="18" height="19" xlink:href="img/6.png" />
<path fill-rule="evenodd" d="M467.7,227.8h110v-7.6h-110v7.6Z" class="g5_1" />
<path d="M467.7,227.8h110v-7.6h-110v7.6Z" class="g6_1" />
<path d="M274.8,382.8H852.3" class="g7_1" />
<image preserveAspectRatio="none" x="275" y="396" width="30" height="30" xlink:href="img/7.png" />
<path fill-rule="evenodd" d="M329.7,804.6H577.6v-.8H329.7v.8Z" class="g8_1" />
<path fill-rule="evenodd" d="M329.7,1002.8H592.1v-.7H329.7v.7Z" class="g8_1" />
<path fill-rule="evenodd" d="M467.7,269h110v-7.2h-110V269Z" class="g5_1" />
<path d="M467.7,269h110v-7.2h-110V269Z" class="g6_1" />
<path d="M246.9,400.9v829.3" class="g9_1" />
<path fill-rule="evenodd" d="M247.1,675.7c-2.4,0,-4.4,1.9,-4.4,4.4c0,2.4,2,4.3,4.4,4.3c2.4,0,4.4,-1.9,4.4,-4.3c0,-2.5,-2,-4.4,-4.4,-4.4Z" class="g8_1" />
<image preserveAspectRatio="none" x="665" y="227" width="19" height="18" xlink:href="img/8.png" />
<image preserveAspectRatio="none" x="665" y="256" width="19" height="19" xlink:href="img/9.png" />
<image preserveAspectRatio="none" x="665" y="292" width="18" height="19" xlink:href="img/10.png" />
<path fill-rule="evenodd" d="M699.8,269.9H829.2v-.6H699.8v.6Z" class="g10_1" />
<path fill-rule="evenodd" d="M275.5,310.7h95.1v-7.3H275.5v7.3Z" class="g5_1" />
<path d="M275.5,310.7h95.1v-7.3H275.5v7.3Z" class="g6_1" />
<path fill-rule="evenodd" d="M467.5,309.9h143v-6.6h-143v6.6Z" class="g5_1" />
<path d="M467.5,309.9h143v-6.6h-143v6.6Z" class="g6_1" />
<path fill-rule="evenodd" d="M275,351.1h50.6v-7.3H275v7.3Z" class="g5_1" />
<path d="M275,351.1h50.6v-7.3H275v7.3Z" class="g6_1" />
<path fill-rule="evenodd" d="M467.5,351.4h76.4v-7.6H467.5v7.6Z" class="g5_1" />
<path d="M467.5,351.4h76.4v-7.6H467.5v7.6Z" class="g6_1" />
<path fill-rule="evenodd" d="M247.1,463.8c-2.4,0,-4.3,1.9,-4.3,4.3c0,2.5,1.9,4.4,4.3,4.4c2.5,0,4.4,-1.9,4.4,-4.4c0,-2.4,-1.9,-4.3,-4.4,-4.3Z" class="g8_1" />
</svg>