<?xml version="1.0" encoding="UTF-8" standalone="no"?>
<!DOCTYPE svg PUBLIC "-//W3C//DTD SVG 1.1//EN"
"http://www.w3.org/Graphics/SVG/1.1/DTD/svg11.dtd">
<svg viewBox="0 0 909 1286" version="1.1" xmlns="http://www.w3.org/2000/svg" xmlns:xlink="http://www.w3.org/1999/xlink">
<defs>
<style type="text/css"><![CDATA[
.g0_2{
fill: #434343;
}
.g1_2{
fill: none;
stroke: #434343;
stroke-width: 2.2916667;
stroke-linecap: butt;
stroke-linejoin: round;
stroke-dasharray: 3,3;
}
]]></style>
</defs>
<path fill-rule="evenodd" d="M247.2,103.1c-2.4,0,-4.4,2,-4.4,4.4c0,2.4,2,4.4,4.4,4.4c2.5,0,4.4,-2,4.4,-4.4c0,-2.4,-1.9,-4.4,-4.4,-4.4Z" class="g0_2" />
<path fill-rule="evenodd" d="M247.6,878.2c-2.4,0,-4.4,2,-4.4,4.4c0,2.5,2,4.4,4.4,4.4c2.4,0,4.4,-1.9,4.4,-4.4c0,-2.4,-2,-4.4,-4.4,-4.4Z" class="g0_2" />
<path fill-rule="evenodd" d="M327.3,956.2H430v-.7H327.3v.7Z" class="g0_2" />
<path fill-rule="evenodd" d="M327.3,1077.8H401v-.7H327.3v.7Z" class="g0_2" />
<path d="M247.5,29.8V1258.9" class="g1_2" />
<path fill-rule="evenodd" d="M327.3,242H710.4v-.7H327.3v.7Z" class="g0_2" />
<path fill-rule="evenodd" d="M327.3,586.7H478.6V586H327.3v.7Z" class="g0_2" />
</svg>