<?xml version="1.0" encoding="UTF-8" standalone="no"?>
<!DOCTYPE svg PUBLIC "-//W3C//DTD SVG 1.1//EN"
"http://www.w3.org/Graphics/SVG/1.1/DTD/svg11.dtd">
<svg viewBox="0 0 909 1286" version="1.1" xmlns="http://www.w3.org/2000/svg" xmlns:xlink="http://www.w3.org/1999/xlink">
<defs>
<style type="text/css"><![CDATA[
.g1_2{
fill: #434343;
}
.g2_2{
fill: none;
stroke: #434343;
stroke-width: 2.2916667;
stroke-linecap: butt;
stroke-linejoin: round;
stroke-dasharray: 3,3;
}
]]></style>
</defs>
<path fill-rule="evenodd" d="M247.6,683.9c-2.4,0,-4.4,2,-4.4,4.4c0,2.4,2,4.4,4.4,4.4c2.4,0,4.4,-2,4.4,-4.4c0,-2.4,-2,-4.4,-4.4,-4.4Z" class="g1_2" />
<path fill-rule="evenodd" d="M327.3,761.9l102.7,0l0,-0.8l-102.7,0l0,0.8Z" class="g1_2" />
<path fill-rule="evenodd" d="M327.3,883.4l73.7,0l0,-0.7l-73.7,0l0,0.7Z" class="g1_2" />
<path d="M247.5,57.4l0,1137.9" class="g2_2" />
<path fill-rule="evenodd" d="M327.3,86.5l383.1,0l0,-0.7l-383.1,0l0,0.7Z" class="g1_2" />
<path fill-rule="evenodd" d="M327.3,431.3l151.3,0l0,-0.8l-151.3,0l0,0.8Z" class="g1_2" />
<path fill-rule="evenodd" d="M341.1,1105.7l120.6,0l0,-0.8l-120.6,0l0,0.8Z" class="g1_2" />
</svg>